<svg width="28" height="28" viewBox="0 0 28 28" fill="none" xmlns="http://www.w3.org/2000/svg">
<path d="M12.25 3.5L9.33337 10.5L14 25.6667L18.6667 10.5L15.75 3.5" stroke="#1A1A1A" stroke-width="2.33333" stroke-linecap="round" stroke-linejoin="round"/>
<path d="M19.8334 3.5C20.5678 3.5 21.2594 3.84579 21.7001 4.43333L25.2001 9.1C25.8164 9.92198 25.8225 11.0503 25.2152 11.879L15.8936 24.696C15.4551 25.3054 14.7502 25.6667 13.9995 25.6667C13.2487 25.6667 12.5438 25.3054 12.1054 24.696L2.78373 11.879C2.17678 11.0501 2.18341 9.92172 2.80006 9.1L6.29773 4.43683C6.73815 3.84731 7.43086 3.50009 8.16673 3.5L19.8334 3.5M2.3334 10.5H25.6667" stroke="#1A1A1A" stroke-width="2.33333" stroke-linecap="round" stroke-linejoin="round"/>
</svg>
