<svg width="16" height="16" viewBox="0 0 16 16" fill="none" xmlns="http://www.w3.org/2000/svg">
<path d="M9.33337 12V4C9.33337 3.26411 8.73593 2.66667 8.00004 2.66667H2.66671C1.93082 2.66667 1.33337 3.26411 1.33337 4V11.3333C1.33337 11.7013 1.6321 12 2.00004 12H3.33337M10 12H6.00004M12.6667 12H14C14.368 12 14.6667 11.7013 14.6667 11.3333V8.9C14.6664 8.74871 14.6147 8.60201 14.52 8.484L12.2 5.584C12.0737 5.42584 11.8824 5.33362 11.68 5.33333H9.33337" stroke="#6B6B6B" stroke-width="1.33333" stroke-linecap="round" stroke-linejoin="round"/>
<path d="M10.0001 12C10.0001 12.7359 10.5976 13.3333 11.3335 13.3333C12.0693 13.3333 12.6668 12.7359 12.6668 12C12.6668 11.2641 12.0693 10.6667 11.3335 10.6667C10.5976 10.6667 10.0001 11.2641 10.0001 12V12" stroke="#6B6B6B" stroke-width="1.33333" stroke-linecap="round" stroke-linejoin="round"/>
<path d="M3.33337 12C3.33337 12.7359 3.93082 13.3333 4.66671 13.3333C5.40259 13.3333 6.00004 12.7359 6.00004 12C6.00004 11.2641 5.40259 10.6667 4.66671 10.6667C3.93082 10.6667 3.33337 11.2641 3.33337 12V12" stroke="#6B6B6B" stroke-width="1.33333" stroke-linecap="round" stroke-linejoin="round"/>
</svg>
